<svg width="40" height="41" viewBox="0 0 40 41" fill="none" xmlns="http://www.w3.org/2000/svg">
<rect y="0.5" width="40" height="40" rx="20" fill="#0E1422"/>
<path d="M24.4769 11.8485L18.204 8.05509C17.6119 7.69292 16.9388 7.5015 16.2532 7.50031C14.2094 7.50031 12.3348 9.21225 12.3348 11.605V25.8073L24.4769 18.4669C26.9083 16.9947 26.9083 13.32 24.4769 11.8485ZM15.8484 18.948V11.3679L22.1163 15.1567L15.8484 18.948Z" fill="white"/>
<path d="M27.8489 33.4844C27.8489 33.5273 15.9908 33.466 15.9908 33.466L14.9434 33.3425C13.2467 33.144 11.9443 31.6233 12.002 29.8346C12.002 29.7917 12.0057 29.7519 12.0081 29.7103C12.0547 28.9365 12.3261 28.1961 12.7858 27.5885C12.9725 27.3461 13.2009 27.1425 13.4592 26.9882L22.4782 21.5725C24.3414 20.4535 25.8931 20.062 26.6999 18.0341C26.9974 17.2757 27.126 16.4562 27.0757 15.6379L27.0446 15.0865L27.9651 20.4204C28.083 21.3264 27.9013 22.2537 27.4211 23.0169C27.1326 23.4785 26.7475 23.8653 26.2951 24.1479L15.8295 29.3943C15.8191 29.4006 15.809 29.4074 15.7993 29.4149C15.5127 29.6293 15.6896 30.1069 16.0403 30.0867L24.7515 30.1403C26.4433 30.0417 27.8526 31.7112 27.8489 33.4844Z" fill="white"/>
</svg>
